<svg xmlns="http://www.w3.org/2000/svg" xmlns:xlink="http://www.w3.org/1999/xlink" viewBox="0 0 65 66" fill="#fff" fill-rule="evenodd" stroke="#000" stroke-linecap="round" stroke-linejoin="round"><use xlink:href="#A" x=".5" y=".5"/><symbol id="A" overflow="visible"><g stroke="none" fill-rule="nonzero"><path d="M24.711 43.2L13.688 58.5c4.8 3.378 10.667 5.333 16.9 5.5V45.156c-2.133-.178-4.1-.7-5.867-1.956z" fill="#48555c"/><path d="M30.577 19.022V0c-6.222.178-12.1 2.133-16.9 5.5l11.024 15.3c1.778-1.067 3.733-1.6 5.867-1.778z" fill="#b2ad4b"/><path d="M49.422 5.5C44.622 2.133 38.744.178 32.544 0v18.844c2.133.178 4.1.9 5.867 1.956z" fill="#e4b33a"/><path d="M19.544 37.156l-17.778 5.7c2.133 5.867 5.7 10.844 10.5 14.4l11.022-15.3c-1.6-1.244-2.844-2.844-3.733-4.8z" fill="#4e5c5a"/><path d="M23.111 22.044L12.266 6.756c-4.8 3.733-8.356 8.7-10.5 14.578L19.544 27.2c.7-2.133 2.133-3.733 3.556-5.156z" fill="#9f9540"/><path d="M18.666 32c0-1.067.178-2.133.356-3.022L1.244 23.1C.344 25.956 0 28.978 0 32c0 3.2.356 6.044 1.244 9.067L19.022 35.2c-.356-1.067-.356-1.956-.356-3.2z" fill="#6a7b54"/><path d="M40 42.133l11.022 15.3c4.8-3.733 8.356-8.7 10.5-14.578l-17.778-5.877c-.9 1.956-2.133 3.733-3.733 5.156z" fill="#d55641"/><path d="M32.711 45.156V64c6.222-.178 12.1-2.133 16.9-5.5L38.577 43.2c-1.778 1.067-3.733 1.778-5.867 1.956z" fill="#993428"/><path d="M62.044 23.1l-17.778 5.867c.178 1.067.356 2.133.356 3.2s-.178 2.133-.356 3.033l17.778 5.867c.9-2.844 1.244-5.867 1.244-8.9 0-3.2-.356-6.222-1.244-9.067z" fill="#e8703e"/><path d="M43.744 27.022l17.778-5.867c-2.133-5.867-5.7-10.844-10.5-14.4L40 22.055c1.6 1.422 2.844 3.022 3.733 4.978z" fill="#f2a838"/></g></symbol></svg>